<svg xmlns="http://www.w3.org/2000/svg" xmlns:xlink="http://www.w3.org/1999/xlink" width="100%" height="100%" version="1.1" viewBox="0 0 1000 1000" xml:space="preserve" style="fill-rule:evenodd;clip-rule:evenodd;stroke-linecap:round;stroke-linejoin:round;stroke-miterlimit:1.5"><g><g><path d="M498.831,416L443.405,448L443.405,512L498.831,544L554.256,512L554.256,481L527,463.736L527,432.264L498.831,416Z" transform="matrix(7.05469,0,0,7.05469,-1846.06,-2940.56) matrix(1,0,0,1,-166.277,7.69873)" style="fill:#7460e1;fill-opacity:0;stroke:#7460e1;stroke-width:5.93px"/></g><g><path d="M471,496.068L498.831,512" transform="matrix(7.05469,0,0,7.05469,-1846.06,-2940.56) matrix(1,0,0,1,-166.277,7.69873)" style="fill:none;stroke:#7460e1;stroke-width:5.93px;stroke-linejoin:miter"/></g><g><path d="M471,463.932L471,496.068L527,463.736L554.256,481L498.831,513L498.831,544" transform="matrix(7.05469,0,0,7.05469,-1846.06,-2940.56) matrix(1,0,0,1,-166.277,7.69873)" style="fill:none;stroke:#7460e1;stroke-width:5.93px"/></g><g><path d="M443.405,448L470.605,463.704L526.426,431.932" transform="matrix(7.05469,0,0,7.05469,-1846.06,-2940.56) matrix(1,0,0,1,-166.277,7.69873)" style="fill:none;stroke:#7460e1;stroke-width:5.93px"/></g></g></svg>